<?xml version="1.0" encoding="UTF-8" standalone="no"?>
<!-- Created with Inkscape (http://www.inkscape.org/) -->

<svg
   xmlns:dc="http://purl.org/dc/elements/1.1/"
   xmlns:cc="http://creativecommons.org/ns#"
   xmlns:rdf="http://www.w3.org/1999/02/22-rdf-syntax-ns#"
   xmlns:svg="http://www.w3.org/2000/svg"
   xmlns="http://www.w3.org/2000/svg"
   xmlns:sodipodi="http://sodipodi.sourceforge.net/DTD/sodipodi-0.dtd"
   xmlns:inkscape="http://www.inkscape.org/namespaces/inkscape"
   width="36.663383mm"
   height="38.366909mm"
   viewBox="0 0 36.663383 38.366909"
   version="1.1"
   id="svg8"
   inkscape:version="0.92.2 (5c3e80d, 2017-08-06)"
   sodipodi:docname="Label.svg">
  <defs
     id="defs2" />
  <sodipodi:namedview
     id="base"
     pagecolor="#ffffff"
     bordercolor="#666666"
     borderopacity="1.0"
     inkscape:pageopacity="0.0"
     inkscape:pageshadow="2"
     inkscape:zoom="2.8"
     inkscape:cx="127.0138"
     inkscape:cy="33.203451"
     inkscape:document-units="mm"
     inkscape:current-layer="layer1"
     showgrid="false"
     inkscape:window-width="2160"
     inkscape:window-height="1330"
     inkscape:window-x="-12"
     inkscape:window-y="-12"
     inkscape:window-maximized="1" />
  <metadata
     id="metadata5">
    <rdf:RDF>
      <cc:Work
         rdf:about="">
        <dc:format>image/svg+xml</dc:format>
        <dc:type
           rdf:resource="http://purl.org/dc/dcmitype/StillImage" />
        <dc:title></dc:title>
      </cc:Work>
    </rdf:RDF>
  </metadata>
  <g
     inkscape:label="Ebene 1"
     inkscape:groupmode="layer"
     id="layer1"
     transform="translate(-73.091462,-59.227583)">
    <path
       sodipodi:type="star"
       style="opacity:1;fill:#ffffff;fill-opacity:0.94984801;stroke:#000000;stroke-width:0.27199998;stroke-miterlimit:4;stroke-dasharray:none;stroke-dashoffset:0;stroke-opacity:1"
       id="path16"
       sodipodi:sides="3"
       sodipodi:cx="81.151039"
       sodipodi:cy="68.231361"
       sodipodi:r1="9.3739805"
       sodipodi:r2="4.6869903"
       sodipodi:arg1="-0.2547583"
       sodipodi:arg2="0.79243925"
       inkscape:flatsided="true"
       inkscape:rounded="0"
       inkscape:randomized="0"
       d="M 90.222467,65.86901 78.661181,77.268624 74.569469,61.55645 Z"
       inkscape:transform-center-x="-1.2075451"
       inkscape:transform-center-y="1.1302486"
       transform="matrix(0.96997156,0,0,0.95688515,2.2392048,3.3314251)" />
    <rect
       style="opacity:1;fill:#ffffff;fill-opacity:0.94984801;stroke:#000000;stroke-width:0.31710604;stroke-miterlimit:4;stroke-dasharray:none;stroke-dashoffset:0;stroke-opacity:1"
       id="rect18"
       width="28.200251"
       height="15.644282"
       x="110.15097"
       y="-17.439154"
       transform="matrix(0.70132579,0.71284089,-0.71681896,0.69725933,0,0)" />
    <circle
       style="opacity:1;fill:#ffffff;fill-opacity:0.94984801;stroke:#000000;stroke-width:0.27199998;stroke-miterlimit:4;stroke-dasharray:none;stroke-dashoffset:0;stroke-opacity:1"
       id="path20"
       cx="77.296135"
       cy="65.017113"
       r="1.1339285" />
    <path
       style="fill:none;stroke:#000000;stroke-width:0.12552015px;stroke-linecap:butt;stroke-linejoin:miter;stroke-opacity:1"
       d="m 77.272178,65.508143 c 3.668284,-4.66425 -4.168503,-6.219 -4.168503,-6.219"
       id="path22"
       inkscape:connector-curvature="0" />
    <path
       style="fill:none;stroke:#000000;stroke-width:0.12816548px;stroke-linecap:butt;stroke-linejoin:miter;stroke-opacity:1"
       d="m 88.177709,73.504869 c 5.331084,-1.662589 1.392652,1.627833 2.550024,2.058424 1.157374,0.430587 5.690334,-1.045582 4.008705,0.166249 -1.68163,1.211829 -1.971063,1.822843 0.808832,1.62244 2.779894,-0.200401 -2.990064,2.265612 -0.353851,2.839067 2.636213,0.573455 3.620305,-0.483328 3.288587,0.224189 -0.33172,0.707517 -1.98051,1.596659 -0.829704,2.091784 1.150809,0.495126 5.028518,-0.9225 4.021038,0.683149 -1.00748,1.605652 -2.604547,2.624467 -1.04771,2.638856 1.55684,0.01439 3.67573,-0.708909 2.71134,0.154223"
       id="path829"
       inkscape:connector-curvature="0" />
    <path
       style="fill:none;stroke:#000000;stroke-width:0.08857708px;stroke-linecap:butt;stroke-linejoin:miter;stroke-opacity:1"
       d="m 94.419908,84.923692 c -3.673149,1.253165 -1.003798,-1.087086 -1.818213,-1.357948 -0.814416,-0.27086 -3.936311,0.837554 -2.792417,-0.02923 1.143902,-0.866781 1.332156,-1.292005 -0.597512,-1.095738 -1.929662,0.196266 2.031567,-1.61726 0.185255,-1.95483 -1.846313,-0.337569 -2.508263,0.408107 -2.292669,-0.0842 0.215595,-0.49231 1.343579,-1.137062 0.532337,-1.452328 -0.811235,-0.315266 -3.478534,0.73913 -2.812086,-0.383514 0.666454,-1.122646 1.755668,-1.855247 0.672272,-1.832182 -1.083402,0.02306 -2.541987,0.564008 -1.889584,-0.04843"
       id="path829-5"
       inkscape:connector-curvature="0" />
  </g>
</svg>
